<svg width="96" height="96" viewBox="0 0 96 96" fill="none" xmlns="http://www.w3.org/2000/svg">
<g filter="url(#filter0_d_6_354)">
<path fill-rule="evenodd" clip-rule="evenodd" d="M57.6462 13.0858C58.4272 13.8668 58.4272 15.1332 57.6462 15.9142C56.0057 17.5547 53.9764 20.3597 52.0597 23.3137C50.1655 26.2329 48.4663 29.1637 47.4877 30.9577C46.9588 31.9274 45.7439 32.2847 44.7742 31.7558C43.8045 31.2269 43.4472 30.012 43.9762 29.0423C44.9976 27.1696 46.7484 24.1504 48.7042 21.1363C50.6375 18.1569 52.8582 15.0453 54.8177 13.0858C55.5988 12.3047 56.8651 12.3047 57.6462 13.0858Z" fill="#77A90D"/>
<path fill-rule="evenodd" clip-rule="evenodd" d="M36.7916 15.5149C37.0595 14.4433 38.1454 13.7918 39.217 14.0597C42.7459 14.9419 49.3928 19.7424 53.136 31.388C53.474 32.4395 52.8955 33.566 51.8439 33.904C50.7924 34.2421 49.6659 33.6636 49.3279 32.612C45.8711 21.8575 40.0513 18.3914 38.2468 17.9403C37.1753 17.6724 36.5237 16.5865 36.7916 15.5149Z" fill="#C1EA1D"/>
<path fill-rule="evenodd" clip-rule="evenodd" d="M48.2319 9C49.3365 9 50.2319 9.89543 50.2319 11V28C50.2319 29.1046 49.3365 30 48.2319 30C47.1274 30 46.2319 29.1046 46.2319 28V11C46.2319 9.89543 47.1274 9 48.2319 9Z" fill="#9AD51C"/>
<path d="M58.2319 44C58.2319 60.2924 51.2319 81.5 48.2319 81.5C45.2319 81.5 38.2319 60.2924 38.2319 44C38.2319 27.7076 40.2319 22.5 48.2319 22.5C56.2319 22.5 58.2319 27.7076 58.2319 44Z" fill="#FF8718"/>
<path fill-rule="evenodd" clip-rule="evenodd" d="M50.0255 82.8676C49.6241 83.1635 49.0086 83.5 48.2319 83.5C47.4553 83.5 46.8397 83.1635 46.4384 82.8676C46.0238 82.562 45.6677 82.1753 45.3656 81.7892C44.7596 81.0144 44.1676 79.9765 43.6013 78.7982C42.4585 76.421 41.2663 73.1471 40.1859 69.4159C38.0262 61.9578 36.2319 52.3889 36.2319 44C36.2319 35.9038 36.7068 30.1061 38.4076 26.3207C39.2965 24.3422 40.5571 22.8193 42.3094 21.8277C44.0274 20.8554 46.0318 20.5 48.2319 20.5C50.4321 20.5 52.4364 20.8554 54.1545 21.8277C55.9068 22.8193 57.1673 24.3422 58.0562 26.3207C59.7571 30.1061 60.2319 35.9038 60.2319 44C60.2319 52.3889 58.4377 61.9578 56.278 69.4159C55.1976 73.1471 54.0054 76.421 52.8626 78.7982C52.2962 79.9765 51.7043 81.0144 51.0982 81.7892C50.7962 82.1753 50.4401 82.562 50.0255 82.8676ZM48.2319 81.5C51.2319 81.5 58.2319 60.2924 58.2319 44C58.2319 27.7076 56.2319 22.5 48.2319 22.5C40.2319 22.5 38.2319 27.7076 38.2319 44C38.2319 60.2924 45.2319 81.5 48.2319 81.5Z" fill="#A44703"/>
<path d="M46.7844 24.7915C49.3681 25.5047 50.5954 29.2247 49.5256 33.1003C48.4557 36.9759 44.3156 55.7133 41.7319 55.0001C39.1482 54.2869 39.0992 34.3931 40.169 30.5175C41.2389 26.6419 44.2007 24.0782 46.7844 24.7915Z" fill="#FFA858"/>
<path fill-rule="evenodd" clip-rule="evenodd" d="M46.2319 79.4982C49.5767 73.8414 54.2319 57.2863 54.2319 44C54.2319 29.1606 52.5727 23.517 46.2319 22.6284C46.8528 22.5414 47.5185 22.5 48.2319 22.5C56.2319 22.5 58.2319 27.7076 58.2319 44C58.2319 60.2924 51.2319 81.5 48.2319 81.5C47.6784 81.5 46.9887 80.778 46.2319 79.4982Z" fill="#EA6E1B"/>
<path fill-rule="evenodd" clip-rule="evenodd" d="M37.7319 33.5C37.7319 32.9477 38.1796 32.5 38.7319 32.5H44.2319C44.7842 32.5 45.2319 32.9477 45.2319 33.5C45.2319 34.0523 44.7842 34.5 44.2319 34.5H38.7319C38.1796 34.5 37.7319 34.0523 37.7319 33.5Z" fill="#CE5F14"/>
<path fill-rule="evenodd" clip-rule="evenodd" d="M47.2319 37.5C47.2319 36.9477 47.6796 36.5 48.2319 36.5H53.7319C54.2842 36.5 54.7319 36.9477 54.7319 37.5C54.7319 38.0523 54.2842 38.5 53.7319 38.5H48.2319C47.6796 38.5 47.2319 38.0523 47.2319 37.5Z" fill="#CE5F14"/>
<path fill-rule="evenodd" clip-rule="evenodd" d="M50.2319 28.5C50.2319 27.9477 50.6796 27.5 51.2319 27.5H56.7319C57.2842 27.5 57.7319 27.9477 57.7319 28.5C57.7319 29.0523 57.2842 29.5 56.7319 29.5H51.2319C50.6796 29.5 50.2319 29.0523 50.2319 28.5Z" fill="#CE5F14"/>
<path fill-rule="evenodd" clip-rule="evenodd" d="M40.2319 25.5C40.2319 24.9477 40.6796 24.5 41.2319 24.5H46.7319C47.2842 24.5 47.7319 24.9477 47.7319 25.5C47.7319 26.0523 47.2842 26.5 46.7319 26.5H41.2319C40.6796 26.5 40.2319 26.0523 40.2319 25.5Z" fill="#CE5F14"/>
<path fill-rule="evenodd" clip-rule="evenodd" d="M49.2319 42.5C49.2319 41.9477 49.6796 41.5 50.2319 41.5H55.7319C56.2842 41.5 56.7319 41.9477 56.7319 42.5C56.7319 43.0523 56.2842 43.5 55.7319 43.5H50.2319C49.6796 43.5 49.2319 43.0523 49.2319 42.5Z" fill="#CE5F14"/>
<path fill-rule="evenodd" clip-rule="evenodd" d="M37.2319 41.5C37.2319 40.9477 37.6796 40.5 38.2319 40.5H43.7319C44.2842 40.5 44.7319 40.9477 44.7319 41.5C44.7319 42.0523 44.2842 42.5 43.7319 42.5H38.2319C37.6796 42.5 37.2319 42.0523 37.2319 41.5Z" fill="#CE5F14"/>
<path fill-rule="evenodd" clip-rule="evenodd" d="M45.2319 48.5C45.2319 47.9477 45.6796 47.5 46.2319 47.5H51.7319C52.2842 47.5 52.7319 47.9477 52.7319 48.5C52.7319 49.0523 52.2842 49.5 51.7319 49.5H46.2319C45.6796 49.5 45.2319 49.0523 45.2319 48.5Z" fill="#CE5F14"/>
<path fill-rule="evenodd" clip-rule="evenodd" d="M50.2319 57.5C50.2319 56.9477 50.6796 56.5 51.2319 56.5H56.7319C57.2842 56.5 57.7319 56.9477 57.7319 57.5C57.7319 58.0523 57.2842 58.5 56.7319 58.5H51.2319C50.6796 58.5 50.2319 58.0523 50.2319 57.5Z" fill="#CE5F14"/>
<path fill-rule="evenodd" clip-rule="evenodd" d="M38.2319 54.5C38.2319 53.9477 38.6796 53.5 39.2319 53.5H44.7319C45.2842 53.5 45.7319 53.9477 45.7319 54.5C45.7319 55.0523 45.2842 55.5 44.7319 55.5H39.2319C38.6796 55.5 38.2319 55.0523 38.2319 54.5Z" fill="#CE5F14"/>
<path fill-rule="evenodd" clip-rule="evenodd" d="M39.2319 62.5C39.2319 61.9477 39.6796 61.5 40.2319 61.5H45.7319C46.2842 61.5 46.7319 61.9477 46.7319 62.5C46.7319 63.0523 46.2842 63.5 45.7319 63.5H40.2319C39.6796 63.5 39.2319 63.0523 39.2319 62.5Z" fill="#CE5F14"/>
<path fill-rule="evenodd" clip-rule="evenodd" d="M48.2319 67.5C48.2319 66.9477 48.6796 66.5 49.2319 66.5H54.7319C55.2842 66.5 55.7319 66.9477 55.7319 67.5C55.7319 68.0523 55.2842 68.5 54.7319 68.5H49.2319C48.6796 68.5 48.2319 68.0523 48.2319 67.5Z" fill="#CE5F14"/>
<path fill-rule="evenodd" clip-rule="evenodd" d="M42.2319 72.5C42.2319 71.9477 42.6796 71.5 43.2319 71.5H48.7319C49.2842 71.5 49.7319 71.9477 49.7319 72.5C49.7319 73.0523 49.2842 73.5 48.7319 73.5H43.2319C42.6796 73.5 42.2319 73.0523 42.2319 72.5Z" fill="#CE5F14"/>
<path fill-rule="evenodd" clip-rule="evenodd" d="M44.2319 78.5C44.2319 77.9477 44.6796 77.5 45.2319 77.5H50.7319C51.2842 77.5 51.7319 77.9477 51.7319 78.5C51.7319 79.0523 51.2842 79.5 50.7319 79.5H45.2319C44.6796 79.5 44.2319 79.0523 44.2319 78.5Z" fill="#CE5F14"/>
<path fill-rule="evenodd" clip-rule="evenodd" d="M46.396 30.1095L46.3873 30.1226L46.358 30.1668C46.3322 30.2059 46.2946 30.2633 46.2483 30.3344C46.1555 30.477 46.0302 30.672 45.8986 30.883C45.7659 31.096 45.6332 31.3149 45.5234 31.5079C45.4686 31.6041 45.4238 31.6863 45.3895 31.7528C45.3565 31.8169 45.3428 31.848 45.341 31.8521C45.3408 31.8526 45.3409 31.8523 45.341 31.8521C44.9248 32.8753 43.7577 33.3676 42.7346 32.9514C41.7115 32.5351 41.2195 31.3682 41.6357 30.3451C41.8343 29.857 42.2452 29.1823 42.5042 28.7668C42.6531 28.5281 42.793 28.3106 42.8953 28.1533C42.9466 28.0744 42.9889 28.0099 43.0188 27.9647L43.0538 27.9116L43.0673 27.8915C43.0673 27.8914 43.0678 27.8907 44.7319 29.0001L43.0673 27.8915C43.68 26.9724 44.9222 26.7233 45.8413 27.336C46.7603 27.9487 47.0085 29.1905 46.396 30.1095Z" fill="white"/>
</g>
<defs>
<filter id="filter0_d_6_354" x="0" y="0" width="100" height="100" filterUnits="userSpaceOnUse" color-interpolation-filters="sRGB">
<feFlood flood-opacity="0" result="BackgroundImageFix"/>
<feColorMatrix in="SourceAlpha" type="matrix" values="0 0 0 0 0 0 0 0 0 0 0 0 0 0 0 0 0 0 127 0" result="hardAlpha"/>
<feOffset dx="4" dy="4"/>
<feColorMatrix type="matrix" values="0 0 0 0 0 0 0 0 0 0 0 0 0 0 0 0 0 0 0.2 0"/>
<feBlend mode="normal" in2="BackgroundImageFix" result="effect1_dropShadow_6_354"/>
<feBlend mode="normal" in="SourceGraphic" in2="effect1_dropShadow_6_354" result="shape"/>
</filter>
</defs>
</svg>
