<svg width="96" height="96" viewBox="0 0 96 96" fill="none" xmlns="http://www.w3.org/2000/svg">
<g filter="url(#filter0_d_6_362)">
<path d="M51.9228 45.7885C40.7659 57.6614 30.1146 78.654 19.0577 68.2639C8.00078 57.8737 28.7117 46.3341 39.8687 34.4612C51.0256 22.5883 59.7802 18.7215 63.1089 21.8494C66.4376 24.9774 63.0798 33.9157 51.9228 45.7885Z" fill="#4CAA1F"/>
<path fill-rule="evenodd" clip-rule="evenodd" d="M27.7806 72.7435C24.3075 73.6252 20.8839 72.7244 17.6881 69.7212C14.4913 66.7173 13.3966 63.3679 14.1168 59.8655C14.7912 56.5862 17.0051 53.4647 19.658 50.5677C22.3429 47.6358 25.7222 44.6802 29.04 41.7839L29.1581 41.6807C32.4752 38.7851 35.7348 35.9396 38.4112 33.0915C44.0717 27.0678 49.229 22.9561 53.5086 20.7519C55.6445 19.6518 57.6684 18.9711 59.4948 18.8361C61.349 18.6991 63.13 19.1247 64.4785 20.3918C65.8281 21.6601 66.3608 23.4107 66.3341 25.2685C66.3078 27.0971 65.7476 29.1545 64.777 31.3486C62.8322 35.745 59.0389 41.1362 53.3803 47.158C50.8282 49.8738 48.293 53.0912 45.7065 56.3738C45.5399 56.5851 45.3732 56.7967 45.2062 57.0085C42.4779 60.4687 39.6835 63.9755 36.8662 66.7897C34.0805 69.5723 31.047 71.9143 27.7806 72.7435ZM44.1516 55.1156C46.722 51.8532 49.3085 48.5705 51.9228 45.7884C63.0798 33.9155 66.4375 24.9773 63.1089 21.8493C59.7802 18.7214 51.0256 22.5882 39.8686 34.4611C37.1239 37.382 33.8009 40.2827 30.5149 43.1512C20.444 51.9422 10.7209 60.4297 19.0577 68.2638C27.5237 76.2193 35.752 65.7761 44.1516 55.1156Z" fill="#2B710A"/>
<path fill-rule="evenodd" clip-rule="evenodd" d="M42.4825 46.8918C44.7949 43.904 47.1218 40.8976 49.498 38.3689C56.2843 31.1472 59.7867 25.0174 60.3639 20.8147C61.4944 20.8525 62.4184 21.2004 63.1089 21.8493C66.4376 24.9772 63.0798 33.9155 51.9229 45.7884C49.3086 48.5704 46.7221 51.8532 44.1516 55.1156C35.7521 65.7761 27.5238 76.2193 19.0577 68.2637C15.0712 64.5176 15.2143 60.622 17.5503 56.6153C17.9715 57.1639 18.472 57.7133 19.0577 58.2637C27.5238 66.2193 34.9261 56.6551 42.4825 46.8918Z" fill="#419C15"/>
<path d="M51.5001 26.5C52.9059 28.7892 44.6965 39.5 36 46.4999C30.6293 50.8228 21 58.5 20.6394 55.2014C19.5099 53.8914 30.6633 44.3097 35.5001 40.5001C46 32.2298 49.4059 24.7892 51.5001 26.5Z" fill="#5FCF2A"/>
<path fill-rule="evenodd" clip-rule="evenodd" d="M31.207 46.7927C31.5976 47.1832 31.5976 47.8164 31.207 48.2069C29.6952 49.7187 28.4355 50.6962 26.9005 51.8873C26.3518 52.3131 25.7679 52.7662 25.1247 53.2807C24.6935 53.6257 24.0642 53.5558 23.7192 53.1245C23.3742 52.6933 23.4441 52.064 23.8753 51.719C24.5726 51.1611 25.1848 50.6861 25.7458 50.2507C27.2427 49.089 28.3761 48.2095 29.7928 46.7927C30.1834 46.4022 30.8165 46.4022 31.207 46.7927Z" fill="#A0EA29"/>
<path d="M65.1039 57.4403C52.1322 67.2981 40.2966 86.7744 29.1966 72.1682C18.0966 57.5619 40.0311 51.3745 53.0028 41.5167C65.9745 31.6588 72.8296 32.0725 76.1713 36.4697C79.5129 40.8669 78.0756 47.5824 65.1039 57.4403Z" fill="#58C923"/>
<path fill-rule="evenodd" clip-rule="evenodd" d="M37.6142 79.4145C33.9509 79.32 30.6189 77.3452 27.6042 73.3782C24.5895 69.4112 23.5791 65.6721 24.4692 62.1173C25.3271 58.6907 27.8489 55.8956 30.8183 53.5041C33.8097 51.0948 37.5517 48.8676 41.2308 46.6896C41.3203 46.6367 41.4097 46.5837 41.4992 46.5308C45.1424 44.3743 48.7352 42.2477 51.7926 39.9242C58.374 34.9227 63.6508 32.3256 67.8932 31.6709C70.0464 31.3386 71.9823 31.4995 73.6801 32.1489C75.3846 32.8009 76.7307 33.9004 77.7636 35.2595C78.7964 36.6186 79.4953 38.2101 79.667 40.0269C79.838 41.8366 79.4745 43.7449 78.5778 45.7304C76.8109 49.6425 72.8954 54.0311 66.314 59.0326C63.2566 61.3561 60.2455 64.2481 57.1922 67.1807L56.9672 67.3968C53.8834 70.3582 50.7355 73.367 47.6131 75.604C44.5137 77.8245 41.1453 79.5055 37.6142 79.4145ZM55.8457 65.7008C58.8686 62.7973 61.9527 59.835 65.1039 57.4402C78.0756 47.5824 79.5129 40.8668 76.1712 36.4696C72.8296 32.0725 65.9744 31.6587 53.0027 41.5166C49.8516 43.9113 46.1714 46.0895 42.5645 48.2243C31.3235 54.8775 20.793 61.1101 29.1965 72.1681C37.6 83.2261 46.4252 74.7494 55.8457 65.7008Z" fill="#2B710A"/>
<path fill-rule="evenodd" clip-rule="evenodd" d="M53.8458 61.7008C56.8687 58.7973 59.9528 55.835 63.104 53.4402C73.1374 45.8153 76.27 40.0704 75.628 35.8242C75.8186 36.0283 75.9996 36.2437 76.1713 36.4696C79.513 40.8668 78.0757 47.5824 65.104 57.4402C61.9528 59.835 58.8687 62.7973 55.8458 65.7008C46.4253 74.7494 37.6001 83.2261 29.1966 72.1681C27.8788 70.4339 27.0265 68.8184 26.5697 67.3014C26.7657 67.587 26.9745 67.8759 27.1966 68.1681C35.6001 79.2261 44.4253 70.7494 53.8458 61.7008Z" fill="#4CAA1F"/>
<path d="M62.0944 42.2107C63.5001 44.4999 45.0001 57.4999 45.0001 57.4999C45.0001 57.4999 29.7691 66.5113 28.6395 65.2013C27.5099 63.8913 34.4576 56.951 40.0001 54.27C54.5944 47.2107 60.0001 40.4999 62.0944 42.2107Z" fill="#79E645"/>
<path d="M45.7779 48.9583C45.7779 49.6716 45.1996 50.2499 44.4862 50.2499C43.7729 50.2499 43.1946 49.6716 43.1946 48.9583C43.1946 48.2449 43.7729 47.6666 44.4862 47.6666C45.1996 47.6666 45.7779 48.2449 45.7779 48.9583Z" fill="#47A21D"/>
<path d="M54.389 45.5138C54.389 46.2272 53.8107 46.8055 53.0973 46.8055C52.384 46.8055 51.8057 46.2272 51.8057 45.5138C51.8057 44.8004 52.384 44.2221 53.0973 44.2221C53.8107 44.2221 54.389 44.8004 54.389 45.5138Z" fill="#47A21D"/>
<path d="M59.5557 40.3471C59.5557 41.0605 58.9774 41.6388 58.264 41.6388C57.5506 41.6388 56.9723 41.0605 56.9723 40.3471C56.9723 39.6338 57.5506 39.0555 58.264 39.0555C58.9774 39.0555 59.5557 39.6338 59.5557 40.3471Z" fill="#47A21D"/>
<path d="M38.0279 55.8471C38.0279 56.5605 37.4496 57.1388 36.7362 57.1388C36.0229 57.1388 35.4446 56.5605 35.4446 55.8471C35.4446 55.1338 36.0229 54.5555 36.7362 54.5555C37.4496 54.5555 38.0279 55.1338 38.0279 55.8471Z" fill="#47A21D"/>
<path d="M50.0835 45.9444C50.0835 46.4199 49.6979 46.8055 49.2223 46.8055C48.7468 46.8055 48.3612 46.4199 48.3612 45.9444C48.3612 45.4688 48.7468 45.0833 49.2223 45.0833C49.6979 45.0833 50.0835 45.4688 50.0835 45.9444Z" fill="#47A21D"/>
<path d="M48.3612 50.2499C48.3612 50.7255 47.9757 51.111 47.5001 51.111C47.0245 51.111 46.639 50.7255 46.639 50.2499C46.639 49.7743 47.0245 49.3888 47.5001 49.3888C47.9757 49.3888 48.3612 49.7743 48.3612 50.2499Z" fill="#47A21D"/>
<path d="M56.1112 41.6388C56.1112 42.1144 55.7257 42.4999 55.2501 42.4999C54.7745 42.4999 54.389 42.1144 54.389 41.6388C54.389 41.1632 54.7745 40.7777 55.2501 40.7777C55.7257 40.7777 56.1112 41.1632 56.1112 41.6388Z" fill="#47A21D"/>
<path d="M63.0001 38.1944C63.0001 38.6699 62.6146 39.0555 62.139 39.0555C61.6634 39.0555 61.2779 38.6699 61.2779 38.1944C61.2779 37.7188 61.6634 37.3333 62.139 37.3333C62.6146 37.3333 63.0001 37.7188 63.0001 38.1944Z" fill="#47A21D"/>
<path d="M33.7223 57.1388C33.7223 57.6144 33.3368 57.9999 32.8612 57.9999C32.3857 57.9999 32.0001 57.6144 32.0001 57.1388C32.0001 56.6632 32.3857 56.2777 32.8612 56.2777C33.3368 56.2777 33.7223 56.6632 33.7223 57.1388Z" fill="#47A21D"/>
<path d="M39.7501 52.8333C39.7501 53.3088 39.3646 53.6944 38.889 53.6944C38.4134 53.6944 38.0279 53.3088 38.0279 52.8333C38.0279 52.3577 38.4134 51.9721 38.889 51.9721C39.3646 51.9721 39.7501 52.3577 39.7501 52.8333Z" fill="#47A21D"/>
<path d="M44.0557 51.9721C44.0557 52.9233 43.2846 53.6944 42.3335 53.6944C41.3823 53.6944 40.6112 52.9233 40.6112 51.9721C40.6112 51.021 41.3823 50.2499 42.3335 50.2499C43.2846 50.2499 44.0557 51.021 44.0557 51.9721Z" fill="#47A21D"/>
<path d="M51.0002 63.4998C51.0002 64.3282 50.3286 64.9998 49.5002 64.9998C48.6718 64.9998 48.0002 64.3282 48.0002 63.4998C48.0002 62.6713 48.6718 61.9998 49.5002 61.9998C50.3286 61.9998 51.0002 62.6713 51.0002 63.4998Z" fill="#79E745"/>
<path d="M45.0002 73.4998C45.0002 74.3282 44.3286 74.9998 43.5002 74.9998C42.6718 74.9998 42.0002 74.3282 42.0002 73.4998C42.0002 72.6713 42.6718 71.9998 43.5002 71.9998C44.3286 71.9998 45.0002 72.6713 45.0002 73.4998Z" fill="#79E745"/>
<path d="M61.0002 58.4998C61.0002 59.3282 60.3286 59.9998 59.5002 59.9998C58.6718 59.9998 58.0002 59.3282 58.0002 58.4998C58.0002 57.6713 58.6718 56.9998 59.5002 56.9998C60.3286 56.9998 61.0002 57.6713 61.0002 58.4998Z" fill="#79E745"/>
<path d="M72.0002 49.4998C72.0002 50.3282 71.3286 50.9998 70.5002 50.9998C69.6718 50.9998 69.0002 50.3282 69.0002 49.4998C69.0002 48.6713 69.6718 47.9998 70.5002 47.9998C71.3286 47.9998 72.0002 48.6713 72.0002 49.4998Z" fill="#79E745"/>
<path d="M54.0002 64.9998C54.0002 65.552 53.5525 65.9998 53.0002 65.9998C52.4479 65.9998 52.0002 65.552 52.0002 64.9998C52.0002 64.4475 52.4479 63.9998 53.0002 63.9998C53.5525 63.9998 54.0002 64.4475 54.0002 64.9998Z" fill="#79E745"/>
<path d="M64.0002 55.9998C64.0002 56.552 63.5525 56.9998 63.0002 56.9998C62.4479 56.9998 62.0002 56.552 62.0002 55.9998C62.0002 55.4475 62.4479 54.9998 63.0002 54.9998C63.5525 54.9998 64.0002 55.4475 64.0002 55.9998Z" fill="#79E745"/>
<path d="M58.0002 60.9998C58.0002 62.1043 57.1048 62.9998 56.0002 62.9998C54.8956 62.9998 54.0002 62.1043 54.0002 60.9998C54.0002 59.8952 54.8956 58.9998 56.0002 58.9998C57.1048 58.9998 58.0002 59.8952 58.0002 60.9998Z" fill="#79E745"/>
<path d="M67.0002 52.9998C67.0002 54.1043 66.1048 54.9998 65.0002 54.9998C63.8956 54.9998 63.0002 54.1043 63.0002 52.9998C63.0002 51.8952 63.8956 50.9998 65.0002 50.9998C66.1048 50.9998 67.0002 51.8952 67.0002 52.9998Z" fill="#79E745"/>
<path d="M49.0002 68.9998C49.0002 70.1043 48.1048 70.9998 47.0002 70.9998C45.8956 70.9998 45.0002 70.1043 45.0002 68.9998C45.0002 67.8952 45.8956 66.9998 47.0002 66.9998C48.1048 66.9998 49.0002 67.8952 49.0002 68.9998Z" fill="#79E745"/>
<path fill-rule="evenodd" clip-rule="evenodd" d="M46.3603 53.0001C46.6899 53.4432 46.5979 54.0697 46.1548 54.3993C44.9084 55.3266 42.6931 56.5929 40.537 57.8254C40.3739 57.9186 40.2112 58.0117 40.0492 58.1043C37.6715 59.4649 35.4878 60.7357 34.5055 61.5605C34.0825 61.9156 33.4517 61.8606 33.0966 61.4377C32.7415 61.0147 32.7964 60.3839 33.2194 60.0288C34.3747 59.0588 36.7598 57.6823 39.0559 56.3684C39.1983 56.287 39.3404 56.2057 39.4821 56.1247C41.7009 54.8559 43.8169 53.6458 44.9611 52.7947C45.4042 52.465 46.0306 52.557 46.3603 53.0001Z" fill="white"/>
</g>
<defs>
<filter id="filter0_d_6_362" x="0" y="0" width="100" height="100" filterUnits="userSpaceOnUse" color-interpolation-filters="sRGB">
<feFlood flood-opacity="0" result="BackgroundImageFix"/>
<feColorMatrix in="SourceAlpha" type="matrix" values="0 0 0 0 0 0 0 0 0 0 0 0 0 0 0 0 0 0 127 0" result="hardAlpha"/>
<feOffset dx="4" dy="4"/>
<feColorMatrix type="matrix" values="0 0 0 0 0 0 0 0 0 0 0 0 0 0 0 0 0 0 0.2 0"/>
<feBlend mode="normal" in2="BackgroundImageFix" result="effect1_dropShadow_6_362"/>
<feBlend mode="normal" in="SourceGraphic" in2="effect1_dropShadow_6_362" result="shape"/>
</filter>
</defs>
</svg>
