<svg width="96" height="96" viewBox="0 0 96 96" fill="none" xmlns="http://www.w3.org/2000/svg">
<g filter="url(#filter0_d_6_360)">
<path d="M50.1008 25.9008C50.0385 25.3891 49.6063 25 49.0908 25H46.9272C46.4042 25 45.9678 25.4012 45.9117 25.9212C45.7191 27.7038 45.1806 31.696 44 34.5C42.928 37.046 39.8207 40.2746 36.0187 42.5333C28.5 47 24 51.9612 24 59C24 69.4934 34.7452 78 48 78C61.2548 78 72 69.4934 72 59C72 51.9082 66.5629 46.8037 59.8187 42.4597C56 40 53.0638 37.156 52 34.5C50.9072 31.7715 50.3194 27.6939 50.1008 25.9008Z" fill="#E289B0"/>
<path fill-rule="evenodd" clip-rule="evenodd" d="M46.9272 23H49.0908C50.6351 23 51.9036 24.1613 52.0861 25.6589C52.3065 27.4667 52.873 31.3006 53.8566 33.7564C54.6832 35.8203 57.1804 38.3813 60.9017 40.7783C67.6715 45.1388 74 50.7668 74 59C74 71.0083 61.8986 80 48 80C34.1014 80 22 71.0083 22 59C22 50.8816 27.2832 45.3965 34.9972 40.8138C38.5923 38.6781 41.311 35.7325 42.1567 33.7239C43.2118 31.2182 43.7304 27.4916 43.9232 25.7064C44.0863 24.1965 45.3572 23 46.9272 23ZM49.0908 25C49.6063 25 50.0385 25.3891 50.1008 25.9008C50.3194 27.6939 50.9072 31.7715 52 34.5C53.0638 37.156 56 40 59.8187 42.4597C66.5629 46.8037 72 51.9082 72 59C72 69.4934 61.2548 78 48 78C34.7452 78 24 69.4934 24 59C24 51.9612 28.5 47 36.0187 42.5333C39.8207 40.2746 42.928 37.046 44 34.5C45.1806 31.696 45.7191 27.7038 45.9117 25.9212C45.9678 25.4012 46.4042 25 46.9272 25H49.0908Z" fill="#9D225D"/>
<path d="M41.1779 46.6172C43.4944 48.9867 42.2852 53.9258 38.477 57.649C34.6688 61.3722 29.7037 62.4697 27.3871 60.1003C25.0706 57.7309 26.2798 52.7918 30.088 49.0685C33.8962 45.3453 38.8613 44.2478 41.1779 46.6172Z" fill="#FFA7CF"/>
<path fill-rule="evenodd" clip-rule="evenodd" d="M46.7372 25.0181C46.3018 25.1014 45.9607 25.4658 45.9115 25.9213C45.8459 26.5286 45.7402 27.3924 45.5826 28.3782C46.0608 27.1597 46.4511 25.9672 46.7372 25.0181ZM30.3842 71.9043C33.3834 73.7127 36.8937 75.0284 40.7357 75.6548C53.8178 77.7877 65.7917 71.121 67.4803 60.7644C68.6214 53.765 64.0766 47.852 58.1193 42.4794C55.428 40.0523 53.3306 37.4741 52.2764 35.1126C53.518 37.5889 56.2919 40.1882 59.8186 42.4598C66.5627 46.8038 71.9999 51.9084 71.9999 59.0001C71.9999 69.4935 61.2547 78.0001 47.9999 78.0001C41.0378 78.0001 34.7681 75.6533 30.3842 71.9043Z" fill="#C7638F"/>
<path d="M50 58C50 67.9411 49.5523 76 49 76C48.4477 76 48 67.9411 48 58C48 48.0589 48.4477 40 49 40C49.5523 40 50 48.0589 50 58Z" fill="#C54C82"/>
<path d="M66 57.5C66 66.0604 57.5793 73 57.0288 73C56.4783 73 64.0064 66.0604 64.0064 57.5C64.0064 48.9396 56.4783 42 57.0288 42C57.5793 42 66 48.9396 66 57.5Z" fill="#C54C82"/>
<path d="M30 57.5C30 66.0604 38.4207 73 38.9712 73C39.5217 73 31.9936 66.0604 31.9936 57.5C31.9936 48.9396 39.5217 42 38.9712 42C38.4207 42 30 48.9396 30 57.5Z" fill="#C54C82"/>
<path d="M58 58.5C58 68.165 53.2574 76 53.0128 76C52.7681 76 55.1139 68.165 55.1139 58.5C55.1139 48.835 52.7681 41 53.0128 41C53.2574 41 58 48.835 58 58.5Z" fill="#C54C82"/>
<path d="M39 58.5C39 68.165 43.7426 76 43.9872 76C44.2319 76 41.8861 68.165 41.8861 58.5C41.8861 48.835 44.2319 41 43.9872 41C43.7426 41 39 48.835 39 58.5Z" fill="#C54C82"/>
<path d="M65.7797 61.0085C65.3822 61.7757 64.438 62.0755 63.6708 61.678C62.9035 61.2805 62.6038 60.3363 63.0013 59.5691C63.3988 58.8019 64.343 58.5021 65.1102 58.8996C65.8774 59.2971 66.1771 60.2413 65.7797 61.0085Z" fill="#A3446E"/>
<path d="M69.0388 65.7164C68.6413 66.4836 67.6971 66.7833 66.9299 66.3858C66.1627 65.9884 65.863 65.0442 66.2604 64.2769C66.6579 63.5097 67.6021 63.21 68.3693 63.6075C69.1366 64.005 69.4363 64.9491 69.0388 65.7164Z" fill="#A3446E"/>
<path d="M70.0526 60.1976C69.7545 60.773 69.0464 60.9978 68.471 60.6997C67.8956 60.4016 67.6708 59.6934 67.9689 59.118C68.267 58.5426 68.9751 58.3178 69.5505 58.6159C70.126 58.914 70.3508 59.6222 70.0526 60.1976Z" fill="#A3446E"/>
<path d="M65.7748 70.3376C65.3773 71.1048 64.4331 71.4045 63.6659 71.007C62.8987 70.6095 62.5989 69.6654 62.9964 68.8981C63.3939 68.1309 64.3381 67.8312 65.1053 68.2287C65.8726 68.6261 66.1723 69.5703 65.7748 70.3376Z" fill="#A3446E"/>
<path d="M63.4964 65.5521C63.0989 66.3193 62.1547 66.619 61.3875 66.2215C60.6202 65.824 60.3205 64.8799 60.718 64.1126C61.1155 63.3454 62.0597 63.0457 62.8269 63.4432C63.5941 63.8407 63.8938 64.7848 63.4964 65.5521Z" fill="#A3446E"/>
<path d="M60.3793 73.5497C59.9818 74.3169 59.0376 74.6166 58.2704 74.2192C57.5031 73.8217 57.2034 72.8775 57.6009 72.1103C57.9984 71.343 58.9426 71.0433 59.7098 71.4408C60.477 71.8383 60.7767 72.7825 60.3793 73.5497Z" fill="#A3446E"/>
<path d="M59.0066 68.7781C58.6091 69.5453 57.6649 69.845 56.8977 69.4475C56.1305 69.0501 55.8307 68.1059 56.2282 67.3386C56.6257 66.5714 57.5699 66.2717 58.3371 66.6692C59.1043 67.0667 59.4041 68.0108 59.0066 68.7781Z" fill="#A3446E"/>
<path d="M54.472 75.3303C54.1739 75.9057 53.4658 76.1305 52.8903 75.8324C52.3149 75.5343 52.0901 74.8262 52.3882 74.2507C52.6864 73.6753 53.3945 73.4505 53.9699 73.7486C54.5453 74.0467 54.7701 74.7549 54.472 75.3303Z" fill="#A3446E"/>
<path fill-rule="evenodd" clip-rule="evenodd" d="M33.6675 51.0765C34.4674 51.8383 34.4982 53.1042 33.7365 53.9041C33.1553 54.5143 32.7545 55.1766 32.508 55.8998C32.1515 56.9452 31.015 57.5038 29.9695 57.1473C28.9241 56.7908 28.3655 55.6543 28.722 54.6089C29.1643 53.3118 29.879 52.1544 30.8399 51.1454C31.6017 50.3456 32.8677 50.3147 33.6675 51.0765Z" fill="white"/>
</g>
<defs>
<filter id="filter0_d_6_360" x="0" y="0" width="100" height="100" filterUnits="userSpaceOnUse" color-interpolation-filters="sRGB">
<feFlood flood-opacity="0" result="BackgroundImageFix"/>
<feColorMatrix in="SourceAlpha" type="matrix" values="0 0 0 0 0 0 0 0 0 0 0 0 0 0 0 0 0 0 127 0" result="hardAlpha"/>
<feOffset dx="4" dy="4"/>
<feColorMatrix type="matrix" values="0 0 0 0 0 0 0 0 0 0 0 0 0 0 0 0 0 0 0.2 0"/>
<feBlend mode="normal" in2="BackgroundImageFix" result="effect1_dropShadow_6_360"/>
<feBlend mode="normal" in="SourceGraphic" in2="effect1_dropShadow_6_360" result="shape"/>
</filter>
</defs>
</svg>
