<svg width="96" height="96" viewBox="0 0 96 96" fill="none" xmlns="http://www.w3.org/2000/svg">
<g filter="url(#filter0_d_6_358)">
<path d="M55.5557 36.548C63.1963 47.1412 78.3025 54.8384 76.5902 56.0735C74.8778 57.3086 55.4379 50.9425 47.7973 40.3494C40.1567 29.7563 40.27 24.5271 43.4223 22.2534C46.5747 19.9796 47.9151 25.9549 55.5557 36.548Z" fill="#E6AF00"/>
<path fill-rule="evenodd" clip-rule="evenodd" d="M74.4717 56.0869C68.8609 55.1237 54.1941 49.2178 47.7974 40.3493C40.1567 29.7562 40.27 24.5271 43.4224 22.2533C45.5125 20.7458 46.806 22.8645 49.6674 27.551C51.1217 29.9329 52.981 32.9783 55.5558 36.548C60.0151 42.7305 67.0174 47.9265 71.7349 51.4272C73.2109 52.5225 74.4632 53.4518 75.3441 54.1934C75.4147 54.2529 75.4828 54.3111 75.5486 54.3681C76.5331 55.2218 76.9655 55.8028 76.5903 56.0735C76.3362 56.2567 75.6921 56.2727 74.7543 56.1323C74.6629 56.1187 74.5686 56.1035 74.4717 56.0869ZM74.9127 56.5446C74.9121 56.5445 74.9063 56.5368 74.897 56.5217C74.9086 56.5371 74.9132 56.5446 74.9127 56.5446ZM75.9498 54.2182C75.9504 54.2187 75.9399 54.2207 75.9161 54.2226C75.9372 54.2187 75.9491 54.2177 75.9498 54.2182ZM78.547 56.7114C78.3608 57.156 78.0618 57.4781 77.7602 57.6956C77.1946 58.1035 76.5603 58.1845 76.2245 58.2107C75.8176 58.2425 75.3832 58.221 74.9605 58.1754C74.1079 58.0835 73.0682 57.8673 71.9226 57.5583C69.6184 56.9369 66.6846 55.8853 63.5841 54.4653C57.4461 51.6542 50.2987 47.2361 46.1753 41.5193C42.297 36.1423 40.2081 31.896 39.5951 28.541C39.2836 26.8363 39.3378 25.278 39.8098 23.9016C40.2891 22.504 41.1563 21.4219 42.2524 20.6313C42.8333 20.2123 43.5325 19.8665 44.3465 19.7892C45.1911 19.7091 45.9493 19.9376 46.5897 20.3153C47.7231 20.9837 48.6478 22.2292 49.4716 23.4685C50.0921 24.4019 50.7338 25.4544 51.4583 26.6425C52.8865 28.9848 54.6362 31.8542 57.1779 35.378C60.805 40.4067 66.2715 44.8237 70.7837 48.2225C71.5007 48.7625 72.203 49.2838 72.8704 49.7791C74.2439 50.7984 75.4691 51.7077 76.368 52.4442C77.0177 52.9765 77.6652 53.5505 78.0869 54.1083C78.2809 54.365 78.6072 54.8457 78.6993 55.4792C78.7511 55.8351 78.7325 56.2685 78.547 56.7114Z" fill="#C0780C"/>
<path d="M39.6226 39.3789C34.7074 48.6414 20.2578 58.1348 19.2059 57.5766C18.1539 57.0184 24.1442 53.939 30.2349 38.5702C35.1501 29.3077 40.6657 24.2673 42.6023 25.2949C44.5389 26.3226 44.5378 30.1163 39.6226 39.3789Z" fill="#8CC900"/>
<path fill-rule="evenodd" clip-rule="evenodd" d="M28.4164 37.7306L28.4682 37.6329C30.9922 32.8765 33.7055 29.1337 36.1045 26.6767C37.2947 25.4577 38.4777 24.4825 39.5859 23.8777C40.5585 23.3469 42.1009 22.7649 43.5398 23.5284C45.6891 24.6689 46.07 27.0867 45.6546 29.5779C45.2279 32.137 43.8757 35.6308 41.3892 40.3165C38.7342 45.3198 33.6286 50.2169 29.2093 53.7268C26.9744 55.5018 24.8466 56.9758 23.1844 57.9822C22.3598 58.4815 21.6091 58.8904 20.9948 59.1631C20.6947 59.2962 20.3639 59.4254 20.0387 59.5066C19.8771 59.5469 19.6568 59.5909 19.4072 59.5989C19.1882 59.6059 18.7409 59.5941 18.2684 59.3434C17.8411 59.1166 17.3068 58.6521 17.1354 57.8663C16.9896 57.198 17.194 56.6553 17.3024 56.4132C17.5105 55.948 17.8748 55.5121 18.0958 55.2483C18.2549 55.0583 18.4282 54.858 18.6177 54.6391C19.1102 54.0699 19.7117 53.3747 20.4577 52.4067C22.4732 49.7911 25.4001 45.3416 28.3756 37.8335L28.4164 37.7306ZM21.4898 54.3288C23.6259 51.672 26.9155 46.9463 30.2349 38.5704C35.1501 29.3078 40.6657 24.2674 42.6023 25.295C44.5389 26.3227 44.5378 30.1164 39.6226 39.379C36.1071 46.0037 27.7146 52.7465 22.8347 55.8455C22.154 56.2778 21.5416 56.6392 21.0204 56.9194C20.0537 57.4392 19.4005 57.68 19.2059 57.5767C18.8901 57.4091 19.2089 57.0144 19.9745 56.1282C20.0143 56.0822 20.0552 56.0348 20.0974 55.9861C20.1355 55.942 20.1746 55.8968 20.2147 55.8504C20.5699 55.4395 20.9995 54.9386 21.4898 54.3288Z" fill="#628D01"/>
<path d="M58.3216 39.2694C62.8985 52.9145 63.4745 74.1261 61.1929 74.8914C58.9114 75.6567 52.6513 54.5317 46.0988 43.6499C39.1255 33.6709 40.4764 25.2227 44.6766 23.8138C48.8768 22.405 53.7447 25.6243 58.3216 39.2694Z" fill="#8CC900"/>
<path fill-rule="evenodd" clip-rule="evenodd" d="M63.3036 75.5412C63.0799 75.9155 62.6301 76.5187 61.829 76.7874C60.8698 77.1091 60.0543 76.7467 59.609 76.4495C59.1702 76.1565 58.8259 75.7649 58.5699 75.4305C58.0444 74.744 57.5175 73.7948 57.0006 72.7493C55.952 70.6287 54.7223 67.6469 53.3955 64.3934C53.2691 64.0832 53.1416 63.7704 53.0132 63.4553C50.4154 57.0787 47.4356 49.7648 44.4196 44.7382C40.7873 39.5207 39.2078 34.5452 39.1976 30.523C39.1878 26.6075 40.7453 23.0228 44.0406 21.9175C45.4367 21.4492 46.9412 21.3546 48.4821 21.7912C50.0056 22.2228 51.439 23.1373 52.7782 24.4882C55.4155 27.1485 57.8962 31.712 60.2178 38.6332C62.5813 45.6796 63.8884 54.5824 64.3255 61.7891C64.5444 65.3976 64.5496 68.651 64.3433 71.0899C64.2412 72.2971 64.0809 73.3883 63.8358 74.2485C63.7147 74.6738 63.5484 75.1317 63.3036 75.5412ZM46.0988 43.6498C49.2102 48.8168 52.2556 56.2934 54.8404 62.6393C57.6993 69.6578 59.9948 75.2932 61.193 74.8913C63.4745 74.126 62.8985 52.9144 58.3216 39.2693C53.7447 25.6242 48.8768 22.4048 44.6766 23.8137C40.4764 25.2226 39.1255 33.6708 46.0988 43.6498Z" fill="#628D01"/>
<path fill-rule="evenodd" clip-rule="evenodd" d="M59.9544 73.9262C61.7173 73.2561 59.0478 52.5605 53.9338 39.1075C50.3657 29.7211 47.2107 25.2773 44.527 23.8674C44.5765 23.8485 44.6265 23.8306 44.6769 23.8137C48.8771 22.4048 53.745 25.6242 58.3219 39.2693C62.8988 52.9144 63.4748 74.1259 61.1932 74.8912C60.8603 75.0029 60.4425 74.6483 59.9515 73.9273C59.9525 73.927 59.9534 73.9266 59.9544 73.9262Z" fill="#7AAA0D"/>
<path d="M46.259 44.8781C42.3306 57.5108 28.5562 73.6317 26.1013 72.8683C23.6465 72.1049 28.1013 60.3683 31.4763 41.8683C35.4047 29.2355 38.7408 24.2575 43.2601 25.6629C47.7794 27.0682 50.1873 32.2453 46.259 44.8781Z" fill="#FEC200"/>
<path fill-rule="evenodd" clip-rule="evenodd" d="M29.5305 41.3901L29.5665 41.2744C31.5346 34.9454 33.4268 30.2703 35.5187 27.3394C36.5769 25.8569 37.7866 24.675 39.226 24.01C40.7262 23.3169 42.2965 23.2688 43.854 23.7531C46.8167 24.6744 49.0531 26.8967 49.88 30.6274C50.6675 34.1801 50.1715 39.0314 48.1687 45.472C46.1039 52.1121 41.5193 59.5177 37.2128 65.1162C35.0493 67.9287 32.9038 70.3532 31.1064 72.0483C30.2151 72.8889 29.3548 73.6023 28.5817 74.0923C28.1977 74.3356 27.7703 74.5657 27.3239 74.7151C26.9134 74.8525 26.2401 75.0059 25.5074 74.7781C24.2604 74.3903 23.7403 73.3343 23.5477 72.5567C23.3616 71.8054 23.3698 70.951 23.4379 70.1374C23.5767 68.477 24.0429 66.2258 24.6535 63.5712C24.9395 62.3278 25.2623 60.9746 25.6102 59.5161C26.7736 54.6392 28.2182 48.5837 29.5088 41.5094L29.5305 41.3901ZM26.1013 72.8683C28.5562 73.6317 42.3306 57.5108 46.2589 44.8781C50.1873 32.2453 47.7794 27.0682 43.2601 25.6629C38.7408 24.2575 35.4047 29.2355 31.4763 41.8683C30.1749 49.0016 28.713 55.1294 27.5486 60.0103C25.6932 67.7878 24.593 72.3993 26.1013 72.8683Z" fill="#AD0505"/>
<path fill-rule="evenodd" clip-rule="evenodd" d="M26.0433 71.0264C28.5742 71.4778 40.232 53.7659 42.5553 40.7421C43.9177 33.1046 43.4376 28.2826 41.8679 25.4329C42.3202 25.4376 42.7836 25.5148 43.2602 25.663C47.7794 27.0684 50.1874 32.2455 46.259 44.8782C42.3306 57.511 28.5562 73.6318 26.1014 72.8684C25.5144 72.6859 25.3224 71.876 25.4164 70.4962C25.5699 70.7999 25.776 70.9787 26.0433 71.0264Z" fill="#DA9308"/>
<path d="M54.8514 45.6184C54.8514 65.7501 46.453 83.1184 44.8514 83.1184C43.2499 83.1184 34.8514 61.9108 34.8514 45.6184C34.8514 29.326 39.3286 24.1184 44.8514 24.1184C50.3743 24.1184 54.8514 29.326 54.8514 45.6184Z" fill="#FA2D11"/>
<path fill-rule="evenodd" clip-rule="evenodd" d="M46.5522 84.417C46.3544 84.5918 45.7407 85.1184 44.8514 85.1184C44.2644 85.1184 43.8256 84.885 43.5963 84.7368C43.3488 84.5769 43.155 84.3922 43.0168 84.2448C42.7391 83.9489 42.4875 83.5893 42.2667 83.2365C41.815 82.5149 41.313 81.5305 40.7905 80.3731C39.7377 78.0414 38.5105 74.8034 37.3424 71.0762C35.0141 63.6469 32.8514 54.0526 32.8514 45.6184C32.8514 37.3523 33.9764 31.5795 36.0221 27.8057C37.0603 25.8903 38.3598 24.4463 39.9041 23.4875C41.4545 22.5249 43.1444 22.1184 44.8514 22.1184C46.5584 22.1184 48.2484 22.5249 49.7988 23.4875C51.3431 24.4463 52.6426 25.8903 53.6808 27.8057C55.7265 31.5795 56.8514 37.3523 56.8514 45.6184C56.8514 55.9474 54.7001 65.54 52.3483 72.5536C51.1722 76.061 49.9334 78.9609 48.8632 81.0144C48.3322 82.0332 47.8169 82.8937 47.3451 83.5273C47.1135 83.8383 46.8473 84.1561 46.5522 84.417ZM44.8514 83.1184C46.453 83.1184 54.8514 65.7501 54.8514 45.6184C54.8514 29.326 50.3743 24.1184 44.8514 24.1184C39.3286 24.1184 34.8514 29.326 34.8514 45.6184C34.8514 61.9108 43.2499 83.1184 44.8514 83.1184Z" fill="#AD0505"/>
<path fill-rule="evenodd" clip-rule="evenodd" d="M44.8516 83.1184C46.4532 83.1184 54.8516 65.7501 54.8516 45.6184C54.8516 29.326 50.3745 24.1184 44.8516 24.1184C44.2933 24.1184 43.7457 24.1716 43.2123 24.2841C43.6354 24.2695 44.0621 24.2904 44.4913 24.3438C49.9719 25.0252 53.7724 30.7453 51.7623 46.9133C50.1787 59.6506 45.3458 70.852 41.6388 77.2471C43.0816 80.8584 44.3288 83.1184 44.8516 83.1184Z" fill="#CC2009"/>
<path d="M39.9823 32.1599C41.7115 32.1162 43.3133 40.0034 43.56 49.7764C43.8067 59.5495 42.605 67.5074 40.8757 67.5511C39.1465 67.5947 37.5447 59.7075 37.298 49.9345C37.0513 40.1615 38.2531 32.2035 39.9823 32.1599Z" fill="#FF553E"/>
<path fill-rule="evenodd" clip-rule="evenodd" d="M39.6231 41.5281C40.1734 41.5747 40.5818 42.0585 40.5353 42.6088C40.3546 44.7476 40.4966 52.5539 40.8718 56.5331C40.9237 57.0829 40.52 57.5707 39.9701 57.6225C39.4203 57.6744 38.9325 57.2707 38.8807 56.7209C38.4989 52.6734 38.3482 44.7391 38.5424 42.4404C38.5889 41.8901 39.0728 41.4816 39.6231 41.5281Z" fill="white"/>
<path fill-rule="evenodd" clip-rule="evenodd" d="M49.329 13.8467L49.327 13.8508L49.3183 13.8679L49.2828 13.939C49.2514 14.002 49.2054 14.0952 49.1485 14.2124C49.0346 14.4474 48.878 14.7771 48.7083 15.1545C48.3599 15.9288 47.9891 16.8315 47.7961 17.522C47.5487 18.4074 47.3969 19.6496 47.3102 20.7373C47.268 21.2674 47.243 21.7365 47.2287 22.0725C47.2215 22.2402 47.217 22.3739 47.2143 22.4647C47.213 22.51 47.2121 22.5446 47.2115 22.5672L47.211 22.592L47.2109 22.5974C47.2109 22.5973 47.2109 22.5974 47.2109 22.5974C47.1952 23.4255 46.5112 24.0851 45.683 24.0695C44.8547 24.054 44.1958 23.37 44.2114 22.5417L45.711 22.5698C44.2114 22.5417 44.2114 22.5418 44.2114 22.5417L44.2115 22.5373L44.2116 22.5281L44.2124 22.4954C44.2131 22.4673 44.2141 22.4271 44.2156 22.3758C44.2187 22.2733 44.2236 22.1263 44.2314 21.9442C44.247 21.5806 44.2739 21.0739 44.3197 20.4992C44.409 19.3773 44.5773 17.8938 44.9068 16.7147C45.1635 15.7959 45.6129 14.7229 45.9724 13.9237C46.1565 13.5144 46.3257 13.158 46.4491 12.9035C46.5109 12.7761 46.5615 12.6736 46.597 12.6023L46.6386 12.5192L46.65 12.4965L46.6547 12.4872C46.6548 12.4871 46.6548 12.4871 47.9764 13.159L46.6547 12.4872C47.0302 11.7488 47.9333 11.4543 48.6717 11.8298C49.4101 12.2052 49.7043 13.1082 49.329 13.8467Z" fill="#506A05"/>
<path d="M52.8729 52.1503C52.3309 52.8859 51.2952 53.0429 50.5595 52.5009C49.8238 51.9589 49.6669 50.9232 50.2088 50.1875C50.7508 49.4519 51.7866 49.2949 52.5223 49.8369C53.2579 50.3789 53.4149 51.4146 52.8729 52.1503Z" fill="#BB0202"/>
<path d="M53.6428 47.3745C53.174 48.0108 52.2781 48.1466 51.6417 47.6778C51.0054 47.209 50.8696 46.3131 51.3384 45.6767C51.8072 45.0404 52.7031 44.9046 53.3395 45.3734C53.9758 45.8422 54.1116 46.7381 53.6428 47.3745Z" fill="#BB0202"/>
<path d="M52.2019 56.6612C51.733 57.2975 50.8372 57.4333 50.2008 56.9645C49.5645 56.4957 49.4287 55.5998 49.8975 54.9635C50.3663 54.3272 51.2622 54.1914 51.8985 54.6602C52.5349 55.129 52.6707 56.0249 52.2019 56.6612Z" fill="#BB0202"/>
<path d="M50.8986 42.3724C50.4298 43.0087 49.5339 43.1445 48.8976 42.6757C48.2613 42.2069 48.1255 41.311 48.5943 40.6747C49.0631 40.0383 49.959 39.9025 50.5953 40.3714C51.2317 40.8402 51.3675 41.7361 50.8986 42.3724Z" fill="#BB0202"/>
<path d="M52.6841 38.2045C52.3578 38.6473 51.7344 38.7418 51.2915 38.4156C50.8487 38.0893 50.7542 37.4658 51.0804 37.023C51.4067 36.5801 52.0302 36.4856 52.473 36.8119C52.9159 37.1381 53.0104 37.7616 52.6841 38.2045Z" fill="#BB0202"/>
<path d="M53.3811 42.9643C53.1382 43.294 52.674 43.3644 52.3443 43.1215C52.0147 42.8786 51.9443 42.4144 52.1872 42.0848C52.4301 41.7551 52.8942 41.6847 53.2239 41.9276C53.5536 42.1705 53.624 42.6347 53.3811 42.9643Z" fill="#BB0202"/>
<path d="M49.899 67.9861C49.5727 68.4289 48.9492 68.5234 48.5064 68.1972C48.0635 67.8709 47.969 67.2474 48.2953 66.8046C48.6215 66.3617 49.245 66.2672 49.6879 66.5935C50.1307 66.9197 50.2252 67.5432 49.899 67.9861Z" fill="#BB0202"/>
<path d="M51.7593 61.5125C51.433 61.9553 50.8096 62.0498 50.3667 61.7235C49.9239 61.3973 49.8293 60.7738 50.1556 60.3309C50.4819 59.8881 51.1054 59.7936 51.5482 60.1198C51.9911 60.4461 52.0856 61.0696 51.7593 61.5125Z" fill="#BB0202"/>
<path fill-rule="evenodd" clip-rule="evenodd" d="M45.8372 19.5746C43.5457 18.1298 38.0772 17.4511 34.5356 26.295C36.3028 26.6568 38.8027 26.8282 41.0066 26.3029C40.9974 27.9834 41.4186 30.0362 42.4954 32.5196C44.4062 31.2456 46.9335 28.9106 47.8412 26.2875C49.2281 27.5991 51.431 28.7469 54.8137 29.4165C54.8823 25.2617 53.2405 17.4712 46.1244 19.5481C46.0674 19.6921 46.0148 19.8458 45.9679 20.008C45.9342 19.9784 45.9 19.9488 45.8653 19.9192C45.8581 19.8061 45.8487 19.6912 45.8372 19.5746Z" fill="#B6EC1C"/>
<path fill-rule="evenodd" clip-rule="evenodd" d="M35.9623 25.5134C37.4544 25.695 39.2123 25.7024 40.7748 25.33C41.0734 25.2588 41.3881 25.3288 41.6285 25.5197C41.8689 25.7106 42.0083 26.0013 42.0066 26.3083C41.9997 27.5639 42.2604 29.0996 42.9446 30.9559C44.5482 29.6885 46.2351 27.8707 46.8962 25.9603C47.0072 25.6394 47.2735 25.3968 47.6034 25.316C47.9333 25.2353 48.2816 25.3275 48.5283 25.5608C49.5803 26.5557 51.2346 27.5036 53.7826 28.158C53.6667 26.3595 53.235 24.2482 52.3001 22.6502C51.7293 21.6745 51.0023 20.9422 50.094 20.546C49.2903 20.1954 48.2528 20.0675 46.8964 20.3793C46.783 20.6628 46.5451 20.881 46.2486 20.9677C45.92 21.0637 45.5651 20.9851 45.308 20.7592C45.2777 20.7326 45.2471 20.7061 45.216 20.6795C45.0668 20.5522 44.9596 20.3849 44.9055 20.1997C43.9479 19.7344 42.5237 19.4661 40.9941 20.0171C39.4192 20.5845 37.5635 22.0836 35.9623 25.5134ZM46.0372 18.5335C44.6573 17.7844 42.5604 17.327 40.3162 18.1355C37.8651 19.0186 35.4446 21.3349 33.6073 25.923C33.4971 26.1981 33.5146 26.508 33.6551 26.7689C33.7956 27.0298 34.0446 27.215 34.335 27.2744C35.8927 27.5934 38.0109 27.7787 40.0632 27.4946C40.2172 29.0751 40.6924 30.875 41.5779 32.9172C41.6958 33.1891 41.9282 33.3947 42.2125 33.4786C42.4968 33.5624 42.8036 33.5158 43.0501 33.3514C44.7356 32.2276 46.9734 30.2576 48.2271 27.8902C49.7491 28.9679 51.833 29.8457 54.6195 30.3973C54.9102 30.4548 55.2115 30.3805 55.442 30.1942C55.6726 30.008 55.8087 29.7291 55.8135 29.4328C55.8493 27.2638 55.4475 24.0694 54.0264 21.6402C53.3058 20.4086 52.2924 19.323 50.8937 18.7128C49.5313 18.1185 47.9121 18.0227 46.0372 18.5335Z" fill="#6F9602"/>
<path d="M42.0986 21.9754C42.3483 22.468 41.9142 23.19 41.1291 23.5879C40.344 23.9858 39.5051 23.909 39.2554 23.4164C39.0057 22.9238 39.4398 22.2018 40.2249 21.8039C41.0101 21.406 41.8489 21.4828 42.0986 21.9754Z" fill="#E3FF93"/>
</g>
<defs>
<filter id="filter0_d_6_358" x="0" y="0" width="100" height="100" filterUnits="userSpaceOnUse" color-interpolation-filters="sRGB">
<feFlood flood-opacity="0" result="BackgroundImageFix"/>
<feColorMatrix in="SourceAlpha" type="matrix" values="0 0 0 0 0 0 0 0 0 0 0 0 0 0 0 0 0 0 127 0" result="hardAlpha"/>
<feOffset dx="4" dy="4"/>
<feColorMatrix type="matrix" values="0 0 0 0 0 0 0 0 0 0 0 0 0 0 0 0 0 0 0.2 0"/>
<feBlend mode="normal" in2="BackgroundImageFix" result="effect1_dropShadow_6_358"/>
<feBlend mode="normal" in="SourceGraphic" in2="effect1_dropShadow_6_358" result="shape"/>
</filter>
</defs>
</svg>
