<svg width="96" height="96" viewBox="0 0 96 96" fill="none" xmlns="http://www.w3.org/2000/svg">
<g filter="url(#filter0_d_6_350)">
<path d="M16.595 36.0029C14.4952 50.1801 23.1308 58.405 35.1627 58.1153C47.1947 57.8257 60.3072 60.2255 63.6947 47.3257C66.5908 36.2968 61.2992 31.7321 46.759 26.135C32.2188 20.5379 18.6948 21.8257 16.595 36.0029Z" fill="#CA8E34"/>
<path fill-rule="evenodd" clip-rule="evenodd" d="M19.0904 53.8195C22.9562 58.1306 28.7321 60.2708 35.2109 60.1149C36.9981 60.0718 38.747 60.0885 40.522 60.1054C41.7396 60.117 42.9693 60.1287 44.2321 60.1214C47.2367 60.1039 50.267 59.9738 53.0654 59.41C55.8756 58.8439 58.5562 57.8208 60.7872 55.9433C63.0398 54.0477 64.6926 51.4001 65.6291 47.8338C67.1823 41.9189 66.6268 37.2654 63.2796 33.3868C60.1365 29.7449 54.7269 27.0592 47.4775 24.2686C40.034 21.4033 32.5562 20.1738 26.5171 21.7159C23.4588 22.4968 20.745 23.9975 18.6503 26.369C16.5581 28.7377 15.1872 31.8573 14.6166 35.71C13.4988 43.2566 15.2125 49.4948 19.0904 53.8195ZM35.1627 58.1154C23.1308 58.405 14.4952 50.1802 16.595 36.003C18.6948 21.8258 32.2188 20.538 46.759 26.1351C61.2992 31.7322 66.5908 36.2969 63.6947 47.3258C60.8146 58.2935 50.9045 58.2015 40.6055 58.1059C38.7912 58.089 36.9649 58.0721 35.1627 58.1154Z" fill="#855D22"/>
<path d="M36.1948 26.8258C37.477 29.3719 34.5139 32.0847 30.6948 34.008C26.8757 35.9313 22.4457 36.5541 21.1634 34.008C19.8812 31.4619 21.9378 27.8388 25.7569 25.9155C29.576 23.9922 34.9126 24.2797 36.1948 26.8258Z" fill="#DB9F45"/>
<path fill-rule="evenodd" clip-rule="evenodd" d="M16.4994 36.7039C17.7934 40.0906 20.0689 43.0928 23.7214 44.3127C33.2702 47.5019 52.835 42.7779 49.9227 30.8853C49.5302 29.2822 48.8773 27.873 48.0292 26.6306C61.6062 32.0086 66.5051 36.624 63.6948 47.3256C60.8148 58.2932 50.9046 58.2012 40.6057 58.1056C38.7914 58.0888 36.965 58.0718 35.1629 58.1152C23.3307 58.4 14.783 50.4507 16.4994 36.7039Z" fill="#AA7A32"/>
<path d="M79.6863 52.655C77.2409 40.0394 64.2013 32.0084 49.5766 42.7618C34.9519 53.5152 22.4779 49.2139 23.6033 62.1353C24.5926 73.4951 40.5441 75.8825 53.8781 75.8825C67.2121 75.8825 81.626 63.8916 79.6863 52.655Z" fill="#DD9B38"/>
<path fill-rule="evenodd" clip-rule="evenodd" d="M81.6536 52.2944L81.6497 52.2742C80.3195 45.4117 76.0706 39.6338 69.9659 37.0979C63.796 34.5349 56.146 35.4488 48.3918 41.1503C42.8932 45.1934 37.8161 46.9724 33.4432 48.5047C32.2232 48.9322 31.058 49.3405 29.9537 49.7734C27.4983 50.736 25.1474 51.9048 23.5561 53.9353C21.9011 56.0471 21.3024 58.7676 21.6108 62.3087C22.206 69.1425 27.3601 73.0305 33.4524 75.157C39.5512 77.2857 47.1416 77.8823 53.8781 77.8823C61.103 77.8823 68.4941 74.6568 73.8274 69.987C79.119 65.3536 82.7945 58.903 81.6571 52.3146L81.6536 52.2944ZM79.6863 52.6548C81.626 63.8915 67.2121 75.8823 53.8781 75.8823C40.5441 75.8823 24.5927 73.4949 23.6033 62.1351C22.9216 54.3074 27.2306 52.8002 33.9852 50.4377C38.3806 48.9003 43.8115 47.0007 49.5766 42.7616C64.2013 32.0082 77.2409 40.0393 79.6863 52.6548Z" fill="#976923"/>
<path fill-rule="evenodd" clip-rule="evenodd" d="M66.9977 38.2175C71.591 40.499 74.8657 45.1139 75.9445 50.6791C77.7655 61.2282 64.2336 72.4854 51.7154 72.4854C39.8355 72.4854 25.7425 70.4668 23.5424 61.1457C23.5534 61.4639 23.5736 61.7936 23.6034 62.1353C24.5928 73.4951 40.5442 75.8825 53.8782 75.8825C67.2122 75.8825 81.6261 63.8916 79.6864 52.655C78.3031 45.5188 73.53 39.8496 66.9977 38.2175Z" fill="#CA8E34"/>
<path d="M52.2722 51.0371C51.5643 51.6709 50.4765 51.6109 49.8427 50.9029C49.2088 50.195 49.2689 49.1073 49.9768 48.4734C50.6847 47.8396 51.7725 47.8996 52.4063 48.6075C53.0402 49.3155 52.9801 50.4032 52.2722 51.0371Z" fill="#996518"/>
<path d="M35.2722 67.0371C34.5643 67.6709 33.4765 67.6109 32.8427 66.9029C32.2088 66.195 32.2689 65.1073 32.9768 64.4734C33.6847 63.8396 34.7725 63.8996 35.4063 64.6075C36.0402 65.3155 35.9801 66.4032 35.2722 67.0371Z" fill="#996518"/>
<path d="M44.2722 61.0371C43.5643 61.6709 42.4765 61.6109 41.8427 60.9029C41.2088 60.195 41.2689 59.1073 41.9768 58.4734C42.6847 57.8396 43.7725 57.8996 44.4063 58.6075C45.0402 59.3155 44.9801 60.4032 44.2722 61.0371Z" fill="#996518"/>
<path d="M52.2722 67.0371C51.5643 67.6709 50.4765 67.6109 49.8427 66.9029C49.2088 66.195 49.2689 65.1073 49.9768 64.4734C50.6847 63.8396 51.7725 63.8996 52.4063 64.6075C53.0402 65.3155 52.9801 66.4032 52.2722 67.0371Z" fill="#996518"/>
<path d="M65.2722 54.0371C64.5643 54.6709 63.4765 54.6109 62.8427 53.9029C62.2088 53.195 62.2689 52.1073 62.9768 51.4734C63.6847 50.8396 64.7725 50.8996 65.4063 51.6075C66.0402 52.3155 65.9801 53.4032 65.2722 54.0371Z" fill="#996518"/>
<path d="M65.2722 44.0371C64.5643 44.6709 63.4765 44.6109 62.8427 43.9029C62.2088 43.195 62.2689 42.1073 62.9768 41.4734C63.6847 40.8396 64.7725 40.8996 65.4063 41.6075C66.0402 42.3155 65.9801 43.4032 65.2722 44.0371Z" fill="#996518"/>
<path d="M77.2722 55.0371C76.5643 55.6709 75.4765 55.6109 74.8427 54.9029C74.2088 54.195 74.2689 53.1073 74.9768 52.4734C75.6847 51.8396 76.7725 51.8996 77.4063 52.6075C78.0402 53.3155 77.9801 54.4032 77.2722 55.0371Z" fill="#996518"/>
<path d="M58.2722 59.0371C57.5643 59.6709 56.4765 59.6109 55.8427 58.9029C55.2088 58.195 55.2689 57.1073 55.9768 56.4734C56.6847 55.8396 57.7725 55.8996 58.4063 56.6075C59.0402 57.3155 58.9801 58.4032 58.2722 59.0371Z" fill="#996518"/>
<path d="M71.5774 62.7113C70.8694 63.3451 69.7817 63.2851 69.1479 62.5771C68.514 61.8692 68.574 60.7815 69.282 60.1476C69.9899 59.5137 71.0776 59.5738 71.7115 60.2817C72.3454 60.9897 72.2853 62.0774 71.5774 62.7113Z" fill="#996518"/>
<path d="M60.5774 70.7113C59.8694 71.3451 58.7817 71.2851 58.1479 70.5771C57.514 69.8692 57.574 68.7815 58.282 68.1476C58.9899 67.5137 60.0776 67.5738 60.7115 68.2817C61.3454 68.9897 61.2853 70.0774 60.5774 70.7113Z" fill="#996518"/>
<path d="M70.5774 70.7113C69.8694 71.3451 68.7817 71.2851 68.1479 70.5771C67.514 69.8692 67.574 68.7815 68.282 68.1476C68.9899 67.5137 70.0776 67.5738 70.7115 68.2817C71.3454 68.9897 71.2853 70.0774 70.5774 70.7113Z" fill="#996518"/>
<path d="M53.5774 76.7113C52.8694 77.3451 51.7817 77.2851 51.1479 76.5771C50.514 75.8692 50.574 74.7815 51.282 74.1476C51.9899 73.5137 53.0776 73.5738 53.7115 74.2817C54.3454 74.9897 54.2853 76.0774 53.5774 76.7113Z" fill="#996518"/>
<path d="M42.2722 76.0371C41.5643 76.6709 40.4765 76.6109 39.8427 75.9029C39.2088 75.195 39.2689 74.1073 39.9768 73.4734C40.6847 72.8396 41.7725 72.8996 42.4063 73.6075C43.0402 74.3155 42.9801 75.4032 42.2722 76.0371Z" fill="#996518"/>
<path d="M26.2722 58.0371C25.5643 58.6709 24.4765 58.6109 23.8427 57.9029C23.2088 57.195 23.2689 56.1073 23.9768 55.4734C24.6847 54.8396 25.7725 54.8996 26.4063 55.6075C27.0402 56.3155 26.9801 57.4032 26.2722 58.0371Z" fill="#996518"/>
<path d="M42.2722 50.0371C41.5643 50.6709 40.4765 50.6109 39.8427 49.9029C39.2088 49.195 39.2689 48.1073 39.9768 47.4734C40.6847 46.8396 41.7725 46.8996 42.4063 47.6075C43.0402 48.3155 42.9801 49.4032 42.2722 50.0371Z" fill="#996518"/>
<path d="M77.272 46.0371C76.564 46.6709 75.4763 46.6109 74.8424 45.9029C74.2086 45.195 74.2686 44.1073 74.9766 43.4734C75.6845 42.8396 76.7722 42.8996 77.4061 43.6075C78.0399 44.3155 77.9799 45.4032 77.272 46.0371Z" fill="#996518"/>
<path d="M40.9936 54.0431C42.2758 56.5891 40.2193 60.2123 36.4002 62.1356C32.5811 64.0589 28.4457 63.5541 27.1634 61.008C25.8812 58.4619 27.9378 54.8388 31.7569 52.9155C35.576 50.9922 39.7114 51.497 40.9936 54.0431Z" fill="#EEB257"/>
<path fill-rule="evenodd" clip-rule="evenodd" d="M34.0284 55.5321C34.5448 56.5085 34.1718 57.7187 33.1953 58.235C32.5884 58.5559 32.1123 58.9608 31.7392 59.4495C31.069 60.3276 29.8139 60.496 28.9359 59.8258C28.0579 59.1556 27.8895 57.9005 28.5597 57.0225C29.3007 56.0517 30.2319 55.2772 31.3255 54.6989C32.302 54.1826 33.5121 54.5556 34.0284 55.5321Z" fill="white"/>
</g>
<defs>
<filter id="filter0_d_6_350" x="0" y="0" width="100" height="100" filterUnits="userSpaceOnUse" color-interpolation-filters="sRGB">
<feFlood flood-opacity="0" result="BackgroundImageFix"/>
<feColorMatrix in="SourceAlpha" type="matrix" values="0 0 0 0 0 0 0 0 0 0 0 0 0 0 0 0 0 0 127 0" result="hardAlpha"/>
<feOffset dx="4" dy="4"/>
<feColorMatrix type="matrix" values="0 0 0 0 0 0 0 0 0 0 0 0 0 0 0 0 0 0 0.2 0"/>
<feBlend mode="normal" in2="BackgroundImageFix" result="effect1_dropShadow_6_350"/>
<feBlend mode="normal" in="SourceGraphic" in2="effect1_dropShadow_6_350" result="shape"/>
</filter>
</defs>
</svg>
