<svg width="96" height="96" viewBox="0 0 96 96" fill="none" xmlns="http://www.w3.org/2000/svg">
<g filter="url(#filter0_d_6_352)">
<path d="M49.3049 31.276C48.0776 22.2378 40.8071 23.6919 36.4448 18.8449C37.6733 21.8388 45.2179 30.0749 49.3049 31.276Z" fill="#73B40D"/>
<path fill-rule="evenodd" clip-rule="evenodd" d="M50.6085 32.7927C51.1227 32.3508 51.378 31.6786 51.2867 31.0068C50.9418 28.467 50.1493 26.5219 48.982 24.99C47.8235 23.4698 46.3962 22.4898 45.008 21.7328C44.3197 21.3575 43.6159 21.0241 42.9577 20.7149C42.9074 20.6913 42.8574 20.6678 42.8077 20.6444C42.1906 20.3547 41.6138 20.0839 41.048 19.7884C39.8395 19.1571 38.7987 18.4705 37.9315 17.5069C37.2808 16.7839 36.2042 16.6339 35.3806 17.1515C34.5571 17.6691 34.2253 18.7041 34.5945 19.604C35.0109 20.6188 35.8567 21.8737 36.8199 23.1103C37.8167 24.3902 39.0553 25.7964 40.3797 27.1379C41.7022 28.4774 43.1386 29.781 44.5348 30.8409C45.8913 31.8707 47.3634 32.7899 48.741 33.1948C49.3914 33.3859 50.0944 33.2346 50.6085 32.7927ZM48.7651 28.8648C48.9994 29.5749 49.1823 30.3731 49.3049 31.2759C48.6361 31.0794 47.8746 30.6944 47.0633 30.1748C44.7484 28.6921 42.0281 26.1132 39.8982 23.6887C38.2138 21.7714 36.8985 19.9506 36.4448 18.8448C37.815 20.3672 39.472 21.268 41.1386 22.0675C41.4095 22.1975 41.6806 22.3248 41.9509 22.4516C44.7822 23.7807 47.5105 25.0614 48.7651 28.8648Z" fill="#436C02"/>
<path d="M50.0188 34.1842C51.2461 25.1461 58.7409 20.7838 63.5879 21.7532C56.3174 22.7226 58.2562 31.9319 50.0188 34.1842Z" fill="#73B40D"/>
<path fill-rule="evenodd" clip-rule="evenodd" d="M48.7009 35.6885C48.1961 35.2462 47.9467 34.5801 48.037 33.915C49.3907 23.9467 57.8016 18.5562 63.9802 19.792C64.939 19.9837 65.6186 20.8407 65.5869 21.818C65.5552 22.7953 64.8215 23.6064 63.8522 23.7356C61.3497 24.0692 60.4399 25.6206 58.9277 28.4343L58.9095 28.4682C57.4564 31.172 55.5338 34.7496 50.5463 36.1133C49.8989 36.2904 49.2058 36.1308 48.7009 35.6885ZM50.478 31.9231C50.2811 32.6408 50.1261 33.3946 50.0188 34.1841C50.8391 33.9599 51.5584 33.6666 52.196 33.3194C54.7922 31.9055 56.0327 29.5966 57.2099 27.4058C57.7987 26.3098 58.3717 25.2434 59.0906 24.3334C60.126 23.0227 61.464 22.0363 63.5879 21.7531C61.8756 21.4106 59.8327 21.7336 57.8525 22.6931C54.7172 24.2123 51.739 27.3272 50.478 31.9231Z" fill="#436C02"/>
<path fill-rule="evenodd" clip-rule="evenodd" d="M50.0164 17.8142C51.1209 17.8142 52.0164 18.7096 52.0164 19.8142V34.3552C52.0164 35.4598 51.1209 36.3552 50.0164 36.3552C48.9118 36.3552 48.0164 35.4598 48.0164 34.3552V19.8142C48.0164 18.7096 48.9118 17.8142 50.0164 17.8142Z" fill="#457003"/>
<path d="M41.2918 32.9015C30.0766 31.9452 19.2404 41.0571 19.965 52.2895C21.1283 72.8408 38.3835 80.1226 48.5623 80.1226C58.2562 80.1226 75.2208 73.2286 77.1596 52.2895C77.8843 41.0571 67.0479 31.9452 55.8328 32.9015C52.875 33.1538 49.5964 34.9359 48.5623 35.1199C47.5281 34.9359 44.2496 33.1538 41.2918 32.9015Z" fill="#FF3A1A"/>
<path fill-rule="evenodd" clip-rule="evenodd" d="M79.1536 52.4461L79.151 52.4738C77.0892 74.7421 58.9569 82.1225 48.5622 82.1225C43.0633 82.1225 35.7705 80.1749 29.6668 75.5006C23.499 70.7772 18.5868 63.2943 17.9686 52.4102C17.1579 39.7614 29.2382 29.8663 41.4617 30.9087C43.2303 31.0595 45.0045 31.6531 46.3575 32.1661C46.8177 32.3406 47.2702 32.5223 47.6558 32.6772C47.8333 32.7485 47.9966 32.814 48.1399 32.8706C48.3027 32.9348 48.4423 32.9886 48.5622 33.0327C48.6822 32.9886 48.8218 32.9348 48.9845 32.8706C49.1279 32.814 49.2912 32.7485 49.4687 32.6772C49.8543 32.5223 50.3068 32.3406 50.767 32.1661C52.1199 31.6531 53.8942 31.0595 55.6628 30.9087C67.8888 29.8661 79.9718 39.7656 79.1554 52.4182L79.1536 52.4461ZM48.5622 35.1198C48.2188 35.0587 47.6279 34.8213 46.8833 34.5223C45.3859 33.9209 43.2673 33.0699 41.2917 32.9014C30.0766 31.9451 19.2403 41.057 19.9649 52.2894C21.1283 72.8407 38.3834 80.1225 48.5622 80.1225C58.2561 80.1225 75.2208 73.2285 77.1595 52.2894C77.8843 41.057 67.0479 31.9451 55.8327 32.9014C53.8572 33.0699 51.7386 33.9209 50.2411 34.5223C49.4966 34.8213 48.9057 35.0587 48.5622 35.1198Z" fill="#A20505"/>
<path fill-rule="evenodd" clip-rule="evenodd" d="M24.5557 39.606C28.6313 35.0817 34.9 32.3565 41.2918 32.9015C43.2673 33.07 45.386 33.921 46.8834 34.5224C47.6279 34.8214 48.2188 35.0588 48.5623 35.1199C48.9057 35.0588 49.4967 34.8214 50.2412 34.5224C51.7386 33.921 53.8572 33.07 55.8328 32.9015C62.5968 32.3247 69.2231 35.4103 73.2584 40.4146C67.9977 37.7199 61.669 36.2814 55.8328 36.7791C53.8573 36.9475 51.7386 37.7985 50.2412 38.3999C49.4967 38.699 48.9058 38.9363 48.5623 38.9975C48.2189 38.9363 47.6279 38.699 46.8834 38.3999C45.386 37.7985 43.2674 36.9475 41.2918 36.7791C35.2585 36.2646 29.4089 37.3844 24.5557 39.606Z" fill="#E83214"/>
<path fill-rule="evenodd" clip-rule="evenodd" d="M29.2467 72.5597C34.4571 75.8284 40.2442 77.2142 44.6846 77.2142C54.3785 77.2142 71.3432 70.3202 73.2819 49.3811C73.6274 44.0257 71.3449 39.1523 67.6462 35.6223C73.5243 39.039 77.6139 45.2474 77.1595 52.2893C75.2208 73.2284 58.2561 80.1224 48.5622 80.1224C42.9783 80.1224 35.2649 77.931 29.2467 72.5597Z" fill="#E83214"/>
<path d="M50.0162 30.7147C56.802 24.6614 58.7408 31.4473 65.0419 32.4166C61.8585 32.9984 53.2332 33.5071 50.0162 30.7147Z" fill="#8ED918"/>
<path fill-rule="evenodd" clip-rule="evenodd" d="M48.0163 30.7282C48.0124 30.1534 48.256 29.6048 48.6849 29.2222C50.536 27.5709 52.2692 26.5999 54.0209 26.3162C55.8189 26.0251 57.3326 26.5065 58.6057 27.1435C59.2281 27.4549 59.824 27.8194 60.3695 28.161C60.4861 28.234 60.6001 28.3058 60.7124 28.3765C61.1471 28.6502 61.5563 28.9079 61.9903 29.1585C63.0555 29.7736 64.1134 30.2502 65.346 30.4398C66.3112 30.5883 67.028 31.412 67.0417 32.3885C67.0555 33.3649 66.3621 34.2084 65.4015 34.384C63.6592 34.7024 60.5526 34.9854 57.4409 34.8284C55.8796 34.7496 54.2585 34.5575 52.777 34.1778C51.3213 33.8048 49.8413 33.2111 48.7052 32.225C48.2712 31.8482 48.0202 31.3029 48.0163 30.7282ZM51.6419 29.4414C51.131 29.7813 50.591 30.2019 50.0162 30.7147C50.5111 31.1442 51.134 31.4957 51.8453 31.7807C54.2051 32.7264 57.5387 32.9418 60.4041 32.8557C62.2898 32.7991 63.9728 32.6119 65.0419 32.4166C63.4246 32.1677 62.0946 31.5357 60.8963 30.8359C60.4598 30.581 60.0408 30.3172 59.6317 30.0596C57.1592 28.5025 55.0499 27.1741 51.6419 29.4414Z" fill="#436C02"/>
<path d="M48.5619 31.4472C44.6845 26.6002 40.3221 29.5084 32.0822 29.9931C35.475 31.9319 44.7852 33.4177 48.5619 31.4472Z" fill="#8ED918"/>
<path fill-rule="evenodd" clip-rule="evenodd" d="M50.5191 31.8593C50.6423 31.2742 50.4973 30.6646 50.1238 30.1977C48.9681 28.7531 47.6844 27.7798 46.2051 27.2315C44.7525 26.6931 43.2696 26.6242 41.8189 26.7254C40.5978 26.8106 39.2713 27.0296 37.9261 27.2517C37.7067 27.2879 37.4868 27.3242 37.2668 27.36C35.6557 27.6223 33.9196 27.8814 31.9648 27.9963C31.0813 28.0483 30.3369 28.6748 30.135 29.5366C29.933 30.3983 30.3215 31.2903 31.0899 31.7294C33.1295 32.8949 36.6171 33.793 39.9516 34.1731C41.6547 34.3672 43.4074 34.4372 45.018 34.3184C46.5954 34.202 48.1958 33.894 49.4871 33.2202C50.0173 32.9437 50.3958 32.4444 50.5191 31.8593ZM47.0177 29.9275C47.5456 30.3178 48.0579 30.8169 48.562 31.4471C47.9866 31.7473 47.2826 31.9673 46.4907 32.1177C43.6487 32.6574 39.6738 32.3003 36.4384 31.5377C34.6587 31.1183 33.1028 30.5761 32.0822 29.9929C33.7067 29.8973 35.1804 29.7076 36.5295 29.5017C37.1321 29.4096 37.7099 29.3144 38.2651 29.2229C41.9516 28.6152 44.643 28.1716 47.0177 29.9275Z" fill="#436C02"/>
<path d="M41.733 38.853C43.7254 41.8176 41.7355 46.6435 37.2887 49.632C32.8418 52.6205 27.6218 52.6398 25.6295 49.6752C23.6372 46.7106 25.627 41.8847 30.0739 38.8963C34.5208 35.9078 39.7407 35.8885 41.733 38.853Z" fill="#FE7B7B"/>
<path fill-rule="evenodd" clip-rule="evenodd" d="M33.4756 41.2073C34.124 42.1015 33.9248 43.3521 33.0305 44.0005C32.376 44.4751 31.8836 45.0294 31.5259 45.6673C30.9857 46.6308 29.7668 46.9739 28.8033 46.4337C27.8398 45.8935 27.4967 44.6746 28.0369 43.7111C28.6912 42.5443 29.5822 41.56 30.6825 40.7622C31.5767 40.1138 32.8272 40.313 33.4756 41.2073Z" fill="white"/>
<path d="M66.1231 60.2943C65.483 61.163 64.2599 61.3484 63.3911 60.7084C62.5224 60.0683 62.337 58.8452 62.977 57.9764C63.6171 57.1077 64.8402 56.9223 65.709 57.5623C66.5777 58.2024 66.7631 59.4255 66.1231 60.2943Z" fill="#BD1106"/>
<path d="M69.2242 66.7374C68.5841 67.6061 67.361 67.7915 66.4922 67.1515C65.6235 66.5114 65.4381 65.2883 66.0781 64.4195C66.7182 63.5508 67.9413 63.3654 68.8101 64.0054C69.6788 64.6455 69.8642 65.8686 69.2242 66.7374Z" fill="#BD1106"/>
<path d="M71.552 60.1281C71.072 60.7797 70.1547 60.9187 69.5031 60.4387C68.8515 59.9587 68.7125 59.0413 69.1925 58.3898C69.6726 57.7382 70.5899 57.5991 71.2415 58.0792C71.893 58.5592 72.0321 59.4766 71.552 60.1281Z" fill="#BD1106"/>
<path d="M64.2962 71.8003C63.6562 72.6691 62.433 72.8545 61.5643 72.2144C60.6955 71.5744 60.5101 70.3513 61.1502 69.4825C61.7902 68.6138 63.0134 68.4284 63.8821 69.0684C64.7509 69.7085 64.9363 70.9316 64.2962 71.8003Z" fill="#BD1106"/>
<path d="M62.4199 65.4527C61.7798 66.3215 60.5567 66.5069 59.688 65.8668C58.8192 65.2268 58.6338 64.0036 59.2739 63.1349C59.9139 62.2661 61.137 62.0807 62.0058 62.7208C62.8745 63.3608 63.0599 64.584 62.4199 65.4527Z" fill="#BD1106"/>
<path d="M57.0139 74.7091C56.3738 75.5779 55.1507 75.7633 54.282 75.1232C53.4132 74.4832 53.2278 73.26 53.8679 72.3913C54.5079 71.5225 55.731 71.3371 56.5998 71.9772C57.4685 72.6172 57.6539 73.8404 57.0139 74.7091Z" fill="#BD1106"/>
<path d="M56.2523 68.5555C55.6122 69.4242 54.3891 69.6096 53.5204 68.9696C52.6516 68.3295 52.4662 67.1064 53.1063 66.2376C53.7463 65.3689 54.9694 65.1835 55.8382 65.8235C56.7069 66.4636 56.8923 67.6867 56.2523 68.5555Z" fill="#BD1106"/>
<path d="M49.3798 75.7521C48.8998 76.4037 47.9825 76.5427 47.3309 76.0627C46.6793 75.5827 46.5403 74.6653 47.0203 74.0138C47.5004 73.3622 48.4177 73.2232 49.0693 73.7032C49.7208 74.1832 49.8599 75.1006 49.3798 75.7521Z" fill="#BD1106"/>
</g>
<defs>
<filter id="filter0_d_6_352" x="0" y="0" width="100" height="100" filterUnits="userSpaceOnUse" color-interpolation-filters="sRGB">
<feFlood flood-opacity="0" result="BackgroundImageFix"/>
<feColorMatrix in="SourceAlpha" type="matrix" values="0 0 0 0 0 0 0 0 0 0 0 0 0 0 0 0 0 0 127 0" result="hardAlpha"/>
<feOffset dx="4" dy="4"/>
<feColorMatrix type="matrix" values="0 0 0 0 0 0 0 0 0 0 0 0 0 0 0 0 0 0 0.2 0"/>
<feBlend mode="normal" in2="BackgroundImageFix" result="effect1_dropShadow_6_352"/>
<feBlend mode="normal" in="SourceGraphic" in2="effect1_dropShadow_6_352" result="shape"/>
</filter>
</defs>
</svg>
